# xmcd
#
# Track frame offsets: 
#        182
#        10752
#        23825
#        37327
#        53687
#        73210
#        84040
#        107940
#        123480
#        133622
#        152835
#
# Disc length: 2221 seconds
#
# Revision: 8
# Processed by: cddbd v1.5.2PL0 Copyright (c) Steve Scherf et al.
# Submitted via: ExactAudioCopy v0.95b4
#
DISCID=8f08ab0b
DTITLE=Various Artist - Country Christmas 1997
DYEAR=1997
DGENRE=Christams
TTITLE0=John Michael Montgomery - Rudolph, The Red Nosed Reindeer
TTITLE1=Bryan White - I'll Be Home For Christmas
TTITLE2=Clay Walker - Blue Christmas
TTITLE3=Martina McBride - Oh Holy Night
TTITLE4=Kevin Sharp - Have Yourself A Merry Little Christmas
TTITLE5=Jeff Foxworthy - Redneck 12 Days Of Christmas
TTITLE6=Travis Trit - Silver Bells
TTITLE7=Neal McCoy - Merry Christmas Darling
TTITLE8=Mila Mason - Santa Claus Is Coming To Town
TTITLE9=Dwight Yoakum - Silent Night
TTITLE10=Anita Cochran - Please Come Home For Christmas
EXTD=YEAR: 1997
EXTT0=John Michael Montgomery
EXTT1=Bryan White
EXTT2=Clay Walker
EXTT3=Martina McBride
EXTT4=Kevin Sharp
EXTT5=Jeff Foxworthy
EXTT6=Travis Tritt
EXTT7=Neal McCoy
EXTT8=Mila Mason
EXTT9=Dwight Yoakam
EXTT10=Anita Cochran
PLAYORDER=
